# xmcd
# 
# Track frame offsets:
#     150
#     9410
#     22380
#     32887
#     42902
#     55115
#     65012
#     76265
#     88797
#     98835
#     109937
#     122282
#     135345
#     146817
#     157347
#     168355
#     180995
#     192285
#     201305
#     212487
# 
# Disc length: 3000
# 
# Revision: 9
# Processed by: cddbd v1.5.2PL0 Copyright (c) Steve Scherf et al.
# Submitted via: fre:ac v1.0.31
# 
DISCID=170bb614
DTITLE=Various Artist - Deutsche Schlager 1962 - 1963 CD 3
DYEAR=1963
DGENRE=Schlager
TTITLE0=Connie Francis - Barcarole in der Nacht
TTITLE1=Freddy Quinn - Lass mich noch einmal in die Ferne
TTITLE2=Peter Alexander - Wenn erst der Abend kommt
TTITLE3=Siw Malmkvist - Mr. Casanova
TTITLE4=Gus Backus - Der Mondschein an der Donau
TTITLE5=Martin Lauer - Wenn ich ein Cowboy wär'
TTITLE6=Die kleine Elisabeth and Will Brandes - Baby-Babbel-Bossa Nova
TTITLE7=Peter Kraus - Ein Souvenir
TTITLE8=Thomas Fritsch - Wenn der Mondschein nicht so romantisch wär'
TTITLE9=Das Medium Terzett - Winnetou
TTITLE10=Mina - Capitano
TTITLE11=Sacha Distel - Wir könnten Freunde sein
TTITLE12=Gus Backus - Bisschen denken beim Schenken
TTITLE13=Ted Herold - Da Doo Ron Ron
TTITLE14=Lawrence Winters - Miteinander, füreinander
TTITLE15=Peter Kraus - Schenk mir einen Talisman
TTITLE16=Margot Eskens - Marcel
TTITLE17=Die Tahiti-Tamoures - Tahiti Mafatu
TTITLE18=Tommy Kent - Sweet Baby Sweet
TTITLE19=Ivo Robic - Danke schön
EXTD=YEAR: 1997
EXTT0=
EXTT1=
EXTT2=
EXTT3=
EXTT4=
EXTT5=
EXTT6=
EXTT7=
EXTT8=
EXTT9=
EXTT10=
EXTT11=
EXTT12=
EXTT13=
EXTT14=
EXTT15=
EXTT16=
EXTT17=
EXTT18=
EXTT19=
PLAYORDER=
